<!DOCTYPE svg PUBLIC "-//W3C//DTD SVG 1.1//EN" "http://www.w3.org/Graphics/SVG/1.1/DTD/svg11.dtd">
<!-- Uploaded to: SVG Repo, www.svgrepo.com, Transformed by: SVG Repo Mixer Tools -->
<svg fill="#2ec27e" width="800px" height="800px" viewBox="0 0 32 32" version="1.1" xmlns="http://www.w3.org/2000/svg" stroke="#2ec27e">
<g id="SVGRepo_bgCarrier" stroke-width="0"/>
<g id="SVGRepo_tracerCarrier" stroke-linecap="round" stroke-linejoin="round"/>
<g id="SVGRepo_iconCarrier"> <title>stamp</title> <path d="M0 30.016q0 0.832 0.576 1.408t1.44 0.576h4q0-0.8 0.576-1.408t1.408-0.576 1.408 0.576 0.608 1.408h4q0-0.8 0.576-1.408t1.408-0.576 1.408 0.576 0.608 1.408h4q0-0.8 0.576-1.408t1.408-0.576 1.408 0.576 0.608 1.408h4q0.8 0 1.408-0.576t0.576-1.408v-4q-0.832 0-1.408-0.576t-0.576-1.44 0.576-1.408 1.408-0.576v-4q-0.832 0-1.408-0.576t-0.576-1.44 0.576-1.408 1.408-0.576v-4q-0.832 0-1.408-0.576t-0.576-1.44 0.576-1.408 1.408-0.576v-4q0-0.832-0.576-1.408t-1.408-0.608h-4q0 0.832-0.608 1.44t-1.408 0.576-1.408-0.576-0.576-1.44h-4q0 0.832-0.608 1.44t-1.408 0.576-1.408-0.576-0.576-1.44h-4q0 0.832-0.608 1.44t-1.408 0.576-1.408-0.576-0.576-1.44h-4q-0.832 0-1.44 0.608t-0.576 1.408v4q0.832 0 1.408 0.576t0.608 1.408-0.608 1.44-1.408 0.576v4q0.832 0 1.408 0.576t0.608 1.408-0.608 1.44-1.408 0.576v4q0.832 0 1.408 0.576t0.608 1.408-0.608 1.44-1.408 0.576v4zM4 28v-24h24v24h-24zM6.016 26.016h20v-20h-20v20zM8 24v-16h16v16h-16z"/> </g>
</svg>